<?xml version="1.0" encoding="UTF-8"?>
<svg xmlns="http://www.w3.org/2000/svg" xmlns:xlink="http://www.w3.org/1999/xlink" width="16px" height="16px" viewBox="0 0 16 16" version="1.1">
<g id="surface1">
<path style=" stroke:none;fill-rule:nonzero;fill:rgb(0%,0%,0%);fill-opacity:1;" d="M 9.960938 12.179688 C 9.335938 12.296875 8.710938 12.359375 8.070312 12.34375 C 5.867188 12.296875 4.105469 11.691406 2.796875 10.523438 C 2.179688 9.972656 1.78125 9.351562 1.648438 8.667969 C 1.390625 7.34375 1.878906 6.15625 3.261719 5.148438 C 4.222656 4.453125 5.40625 3.996094 6.808594 3.804688 C 8.472656 3.578125 10.042969 3.757812 11.5 4.324219 C 12.695312 4.789062 13.589844 5.4375 14.164062 6.269531 C 14.464844 6.703125 14.640625 7.160156 14.703125 7.636719 C 14.800781 8.414062 14.617188 9.164062 14.097656 9.867188 C 13.253906 11.003906 11.914062 11.773438 10.074219 12.160156 C 10.039062 12.167969 10.003906 12.171875 9.960938 12.179688 M 7.089844 6.402344 C 6.5625 6.210938 6.046875 6 5.503906 5.816406 C 5.476562 5.851562 5.460938 5.875 5.445312 5.898438 C 5.261719 6.21875 5.074219 6.535156 4.890625 6.855469 C 4.835938 6.945312 4.84375 6.949219 4.988281 6.976562 C 5.40625 7.054688 5.828125 7.128906 6.242188 7.210938 C 6.335938 7.230469 6.398438 7.21875 6.464844 7.175781 C 6.746094 6.984375 7.03125 6.796875 7.3125 6.605469 C 7.347656 6.585938 7.386719 6.566406 7.394531 6.527344 C 7.304688 6.480469 7.203125 6.445312 7.089844 6.402344 M 3.632812 7.84375 C 3.226562 7.550781 2.820312 7.257812 2.414062 6.964844 C 2.378906 6.941406 2.347656 6.898438 2.285156 6.910156 C 2.222656 6.917969 2.226562 6.964844 2.207031 7 C 2.203125 7.007812 2.203125 7.015625 2.199219 7.023438 C 2.03125 7.457031 1.964844 7.894531 2.035156 8.34375 C 2.054688 8.453125 2.058594 8.566406 2.125 8.683594 C 2.75 8.488281 3.363281 8.300781 3.984375 8.089844 C 3.863281 8.003906 3.753906 7.929688 3.632812 7.84375 M 10.125 5.15625 C 10.035156 4.882812 9.941406 4.609375 9.871094 4.335938 C 9.847656 4.238281 9.808594 4.226562 9.6875 4.277344 C 9.222656 4.46875 8.761719 4.660156 8.300781 4.851562 C 8.183594 4.902344 8.179688 4.910156 8.289062 4.96875 C 8.640625 5.164062 9 5.359375 9.351562 5.554688 C 9.40625 5.585938 9.457031 5.585938 9.515625 5.566406 C 9.671875 5.519531 9.832031 5.472656 9.988281 5.421875 C 10.183594 5.359375 10.230469 5.363281 10.140625 5.207031 C 10.132812 5.195312 10.132812 5.183594 10.125 5.15625 M 7.53125 8.34375 C 7.53125 8.375 7.554688 8.402344 7.597656 8.417969 C 7.8125 8.5 8.023438 8.582031 8.234375 8.664062 C 8.289062 8.683594 8.339844 8.683594 8.390625 8.660156 C 8.625 8.570312 8.855469 8.480469 9.089844 8.390625 C 9.15625 8.363281 9.1875 8.328125 9.183594 8.277344 C 9.171875 8.136719 9.164062 7.996094 9.160156 7.855469 C 9.160156 7.816406 9.136719 7.789062 9.085938 7.773438 C 8.851562 7.6875 8.613281 7.601562 8.378906 7.515625 C 8.339844 7.503906 8.300781 7.492188 8.253906 7.507812 C 8.03125 7.589844 7.808594 7.667969 7.585938 7.746094 C 7.542969 7.761719 7.515625 7.785156 7.519531 7.820312 C 7.542969 7.988281 7.523438 8.160156 7.53125 8.34375 M 13.140625 6.960938 C 13.328125 6.789062 13.511719 6.617188 13.707031 6.449219 C 13.761719 6.402344 13.765625 6.367188 13.730469 6.316406 C 13.566406 6.078125 13.339844 5.863281 13.117188 5.648438 C 13.0625 5.59375 13.027344 5.609375 12.972656 5.648438 C 12.636719 5.914062 12.292969 6.179688 11.953125 6.441406 C 11.855469 6.515625 11.859375 6.523438 11.976562 6.582031 C 12.273438 6.71875 12.570312 6.859375 12.867188 7 C 13.023438 7.070312 13.023438 7.070312 13.140625 6.960938 M 12.058594 5.984375 C 12.28125 5.8125 12.503906 5.636719 12.726562 5.464844 C 12.785156 5.421875 12.796875 5.390625 12.730469 5.347656 C 12.582031 5.253906 12.4375 5.15625 12.292969 5.058594 C 12.246094 5.03125 12.199219 5.015625 12.132812 5.039062 C 11.695312 5.183594 11.238281 5.304688 10.789062 5.433594 C 10.695312 5.460938 10.683594 5.488281 10.738281 5.542969 C 10.992188 5.792969 11.242188 6.042969 11.492188 6.292969 C 11.550781 6.355469 11.597656 6.351562 11.660156 6.300781 C 11.789062 6.195312 11.917969 6.09375 12.058594 5.984375 M 11.945312 7.945312 C 12.019531 7.972656 12.050781 7.933594 12.085938 7.902344 C 12.289062 7.734375 12.488281 7.5625 12.6875 7.390625 C 12.808594 7.289062 12.804688 7.269531 12.640625 7.195312 C 12.640625 7.191406 12.636719 7.191406 12.632812 7.191406 C 12.308594 7.035156 11.96875 6.898438 11.667969 6.722656 C 11.601562 6.683594 11.550781 6.695312 11.496094 6.734375 C 11.246094 6.929688 10.996094 7.125 10.742188 7.316406 C 10.667969 7.375 10.6875 7.40625 10.777344 7.445312 C 11.164062 7.609375 11.546875 7.777344 11.945312 7.945312 M 8.386719 11.519531 C 8.21875 11.441406 8.050781 11.363281 7.878906 11.289062 C 7.824219 11.265625 7.765625 11.25 7.691406 11.277344 C 7.398438 11.398438 7.101562 11.511719 6.804688 11.625 C 6.628906 11.699219 6.453125 11.769531 6.246094 11.855469 C 7.277344 12.085938 8.292969 12.089844 9.320312 11.976562 C 9.324219 11.96875 9.332031 11.957031 9.335938 11.949219 C 9.023438 11.808594 8.710938 11.667969 8.386719 11.519531 M 4.175781 9.363281 C 4.101562 9.355469 4.027344 9.347656 3.953125 9.339844 C 3.457031 9.28125 2.964844 9.222656 2.46875 9.164062 C 2.273438 9.144531 2.238281 9.167969 2.304688 9.289062 C 2.5 9.632812 2.738281 9.960938 3.046875 10.265625 C 3.105469 10.324219 3.167969 10.324219 3.238281 10.28125 C 3.273438 10.261719 3.300781 10.238281 3.328125 10.21875 C 3.617188 10 3.902344 9.785156 4.1875 9.570312 C 4.257812 9.515625 4.34375 9.46875 4.394531 9.398438 C 4.328125 9.375 4.261719 9.371094 4.175781 9.363281 M 13.558594 8.980469 C 13.734375 8.894531 13.914062 8.808594 14.089844 8.722656 C 14.15625 8.691406 14.210938 8.652344 14.226562 8.597656 C 14.273438 8.429688 14.289062 8.257812 14.300781 8.085938 C 14.304688 7.992188 14.273438 7.976562 14.128906 7.996094 C 13.585938 8.070312 13.046875 8.15625 12.5 8.207031 C 12.382812 8.214844 12.375 8.238281 12.445312 8.300781 C 12.550781 8.402344 12.660156 8.5 12.765625 8.601562 C 12.933594 8.769531 13.113281 8.929688 13.257812 9.109375 C 13.375 9.082031 13.449219 9.027344 13.558594 8.980469 M 12.855469 10.632812 C 13.117188 10.417969 13.359375 10.199219 13.546875 9.953125 C 13.585938 9.898438 13.589844 9.855469 13.535156 9.808594 C 13.4375 9.722656 13.335938 9.632812 13.242188 9.542969 C 13.191406 9.496094 13.148438 9.496094 13.082031 9.535156 C 12.648438 9.765625 12.210938 9.992188 11.777344 10.222656 C 11.65625 10.285156 11.65625 10.289062 11.78125 10.351562 C 12.015625 10.460938 12.246094 10.566406 12.480469 10.671875 C 12.6875 10.765625 12.6875 10.765625 12.855469 10.632812 M 5.15625 9.484375 C 5.207031 9.523438 5.261719 9.5625 5.308594 9.601562 C 5.523438 9.777344 5.734375 9.953125 5.949219 10.128906 C 6.050781 10.210938 6.109375 10.222656 6.21875 10.171875 C 6.574219 10.015625 6.941406 9.871094 7.316406 9.734375 C 7.328125 9.730469 7.335938 9.722656 7.359375 9.710938 C 7.082031 9.566406 6.816406 9.421875 6.546875 9.285156 C 6.5 9.261719 6.449219 9.265625 6.398438 9.269531 C 5.996094 9.304688 5.597656 9.339844 5.199219 9.378906 C 5.070312 9.390625 5.066406 9.402344 5.15625 9.484375 M 9.207031 6.023438 C 9.207031 5.996094 9.199219 5.964844 9.207031 5.9375 C 9.234375 5.835938 9.164062 5.769531 9.042969 5.707031 C 8.769531 5.570312 8.507812 5.421875 8.238281 5.28125 C 8.160156 5.238281 8.089844 5.1875 8 5.160156 C 7.957031 5.179688 7.957031 5.203125 7.957031 5.226562 C 7.957031 5.597656 7.957031 5.96875 7.953125 6.339844 C 7.953125 6.386719 7.980469 6.40625 8.050781 6.40625 C 8.390625 6.410156 8.734375 6.394531 9.070312 6.414062 C 9.171875 6.421875 9.207031 6.386719 9.207031 6.328125 C 9.203125 6.230469 9.207031 6.136719 9.207031 6.023438 M 5.746094 10.640625 C 5.773438 10.539062 5.765625 10.527344 5.648438 10.542969 C 5.050781 10.621094 4.453125 10.695312 3.855469 10.777344 C 3.816406 10.78125 3.765625 10.777344 3.738281 10.824219 C 4.191406 11.144531 4.738281 11.382812 5.339844 11.605469 C 5.476562 11.277344 5.609375 10.964844 5.746094 10.640625 M 4.214844 9.914062 C 3.972656 10.101562 3.738281 10.289062 3.46875 10.460938 C 3.433594 10.480469 3.398438 10.507812 3.425781 10.542969 C 3.453125 10.582031 3.503906 10.566406 3.550781 10.558594 C 4.101562 10.488281 4.65625 10.421875 5.207031 10.351562 C 5.351562 10.332031 5.503906 10.328125 5.664062 10.273438 C 5.351562 10.023438 5.070312 9.769531 4.75 9.527344 C 4.546875 9.648438 4.398438 9.785156 4.214844 9.914062 M 5.773438 5.25 C 5.761719 5.3125 5.703125 5.367188 5.71875 5.453125 C 6.328125 5.273438 6.902344 5.066406 7.480469 4.867188 C 7.46875 4.847656 7.46875 4.839844 7.460938 4.835938 C 7.101562 4.632812 6.753906 4.417969 6.378906 4.226562 C 6.269531 4.171875 6.1875 4.195312 6.160156 4.285156 C 6.0625 4.609375 5.902344 4.917969 5.773438 5.25 M 5.375 4.441406 C 4.835938 4.625 4.347656 4.851562 3.898438 5.125 C 4.003906 5.175781 4.113281 5.183594 4.210938 5.207031 C 4.511719 5.273438 4.804688 5.359375 5.09375 5.4375 C 5.261719 5.484375 5.300781 5.472656 5.351562 5.359375 C 5.40625 5.25 5.449219 5.136719 5.5 5.023438 C 5.585938 4.824219 5.644531 4.621094 5.746094 4.429688 C 5.757812 4.402344 5.777344 4.371094 5.734375 4.347656 C 5.699219 4.328125 5.660156 4.351562 5.625 4.359375 C 5.546875 4.382812 5.46875 4.410156 5.375 4.441406 M 8.101562 3.992188 C 7.667969 4.003906 7.230469 4.015625 6.800781 4.109375 C 6.820312 4.128906 6.828125 4.140625 6.839844 4.144531 C 7.152344 4.324219 7.46875 4.5 7.785156 4.679688 C 7.855469 4.722656 7.921875 4.714844 7.996094 4.683594 C 8.429688 4.5 8.863281 4.316406 9.292969 4.132812 C 9.3125 4.125 9.335938 4.117188 9.339844 4.085938 C 8.941406 4.019531 8.53125 4.007812 8.101562 3.992188 M 4.867188 7.210938 C 4.824219 7.207031 4.789062 7.183594 4.734375 7.199219 C 4.664062 7.445312 4.589844 7.691406 4.519531 7.9375 C 4.503906 7.988281 4.554688 7.996094 4.609375 7.996094 C 4.980469 8.003906 5.347656 8.007812 5.714844 8.015625 C 5.8125 8.019531 5.867188 7.996094 5.90625 7.933594 C 5.984375 7.808594 6.074219 7.683594 6.15625 7.554688 C 6.21875 7.460938 6.214844 7.457031 6.0625 7.429688 C 5.671875 7.355469 5.277344 7.285156 4.867188 7.210938 M 11.300781 11.488281 C 11.652344 11.347656 11.972656 11.183594 12.28125 11.007812 C 12.394531 10.945312 12.390625 10.929688 12.273438 10.871094 C 12.015625 10.753906 11.757812 10.640625 11.503906 10.519531 C 11.417969 10.476562 11.382812 10.488281 11.335938 10.546875 C 11.050781 10.929688 10.757812 11.3125 10.46875 11.699219 C 10.453125 11.71875 10.421875 11.738281 10.453125 11.769531 C 10.742188 11.691406 11.019531 11.597656 11.300781 11.488281 M 7.488281 5.160156 C 6.976562 5.324219 6.464844 5.492188 5.941406 5.660156 C 5.980469 5.683594 5.992188 5.691406 6.007812 5.699219 C 6.5 5.890625 6.992188 6.078125 7.480469 6.269531 C 7.554688 6.296875 7.582031 6.273438 7.585938 6.226562 C 7.617188 5.886719 7.601562 5.546875 7.585938 5.207031 C 7.585938 5.171875 7.574219 5.140625 7.488281 5.160156 M 3.339844 6.167969 C 3.871094 6.003906 4.398438 5.839844 4.953125 5.667969 C 4.902344 5.648438 4.886719 5.640625 4.871094 5.636719 C 4.511719 5.550781 4.15625 5.460938 3.800781 5.378906 C 3.585938 5.332031 3.582031 5.335938 3.4375 5.449219 C 3.113281 5.710938 2.847656 5.996094 2.609375 6.292969 C 2.59375 6.316406 2.558594 6.335938 2.597656 6.371094 C 2.855469 6.332031 3.082031 6.238281 3.339844 6.167969 M 10.121094 11.617188 C 10.390625 11.246094 10.710938 10.886719 10.96875 10.5 C 10.921875 10.496094 10.90625 10.492188 10.894531 10.496094 C 10.433594 10.539062 9.976562 10.582031 9.519531 10.628906 C 9.371094 10.640625 9.367188 10.644531 9.417969 10.730469 C 9.597656 11.039062 9.773438 11.34375 9.953125 11.648438 C 9.96875 11.675781 9.976562 11.707031 10.039062 11.714844 C 10.0625 11.6875 10.089844 11.65625 10.121094 11.617188 M 3.679688 6.332031 C 3.382812 6.425781 3.085938 6.515625 2.785156 6.613281 C 2.824219 6.648438 2.867188 6.648438 2.90625 6.652344 C 3.378906 6.726562 3.855469 6.796875 4.324219 6.871094 C 4.433594 6.886719 4.484375 6.875 4.523438 6.808594 C 4.675781 6.546875 4.835938 6.289062 4.988281 6.03125 C 5.003906 6.007812 5.035156 5.980469 5 5.957031 C 4.960938 5.929688 4.917969 5.957031 4.882812 5.96875 C 4.488281 6.085938 4.089844 6.207031 3.679688 6.332031 M 7.363281 11.070312 C 7.0625 10.953125 6.761719 10.839844 6.460938 10.722656 C 6.378906 10.691406 6.296875 10.660156 6.210938 10.632812 C 6.160156 10.617188 6.117188 10.621094 6.105469 10.664062 C 5.984375 10.996094 5.8125 11.320312 5.707031 11.65625 C 5.699219 11.683594 5.691406 11.710938 5.730469 11.726562 C 5.765625 11.746094 5.796875 11.730469 5.828125 11.71875 C 5.996094 11.65625 6.164062 11.59375 6.332031 11.527344 C 6.660156 11.402344 6.992188 11.277344 7.304688 11.136719 C 7.335938 11.125 7.414062 11.125 7.363281 11.070312 M 3.492188 9.042969 C 3.832031 9.082031 4.171875 9.121094 4.515625 9.164062 C 4.515625 9.140625 4.519531 9.132812 4.515625 9.121094 C 4.402344 8.875 4.285156 8.625 4.171875 8.375 C 4.144531 8.3125 4.089844 8.332031 4.027344 8.351562 C 3.503906 8.519531 2.976562 8.691406 2.453125 8.859375 C 2.425781 8.867188 2.394531 8.871094 2.398438 8.90625 C 2.753906 8.949219 3.113281 8.996094 3.492188 9.042969 M 8.171875 10.761719 C 8.386719 10.671875 8.601562 10.582031 8.816406 10.496094 C 8.871094 10.472656 8.902344 10.445312 8.917969 10.40625 C 8.992188 10.253906 9.0625 10.105469 9.136719 9.953125 C 9.183594 9.859375 9.171875 9.847656 9.023438 9.847656 C 8.695312 9.855469 8.367188 9.863281 8.039062 9.863281 C 7.925781 9.863281 7.882812 9.886719 7.886719 9.964844 C 7.902344 10.183594 7.90625 10.40625 7.917969 10.625 C 7.917969 10.695312 7.9375 10.765625 7.949219 10.839844 C 8.039062 10.828125 8.089844 10.789062 8.171875 10.761719 M 9.558594 6.109375 C 9.558594 6.171875 9.5625 6.238281 9.554688 6.304688 C 9.542969 6.378906 9.585938 6.402344 9.699219 6.402344 C 10.136719 6.398438 10.574219 6.402344 11.007812 6.402344 C 11.046875 6.402344 11.089844 6.410156 11.113281 6.378906 C 11.113281 6.375 11.117188 6.367188 11.113281 6.363281 C 10.878906 6.113281 10.628906 5.871094 10.378906 5.628906 C 10.34375 5.59375 10.300781 5.601562 10.253906 5.613281 C 10.050781 5.675781 9.851562 5.738281 9.648438 5.800781 C 9.59375 5.816406 9.566406 5.839844 9.570312 5.882812 C 9.570312 5.953125 9.5625 6.023438 9.558594 6.109375 M 11.433594 10.0625 C 11.488281 10.078125 11.523438 10.046875 11.554688 10.027344 C 11.910156 9.84375 12.261719 9.65625 12.613281 9.46875 C 12.636719 9.457031 12.671875 9.445312 12.675781 9.40625 C 12.054688 9.316406 11.433594 9.226562 10.8125 9.136719 C 10.804688 9.144531 10.792969 9.152344 10.785156 9.160156 C 10.996094 9.457031 11.207031 9.757812 11.433594 10.0625 M 11.359375 4.601562 C 11.042969 4.476562 10.714844 4.371094 10.371094 4.28125 C 10.332031 4.269531 10.289062 4.25 10.25 4.273438 C 10.210938 4.296875 10.222656 4.324219 10.230469 4.355469 C 10.324219 4.625 10.417969 4.894531 10.507812 5.167969 C 10.527344 5.226562 10.570312 5.238281 10.652344 5.210938 C 10.945312 5.125 11.238281 5.042969 11.53125 4.957031 C 11.609375 4.933594 11.6875 4.90625 11.765625 4.878906 C 11.851562 4.847656 11.859375 4.8125 11.773438 4.773438 C 11.640625 4.71875 11.507812 4.664062 11.359375 4.601562 M 11.714844 9.023438 C 12.101562 9.078125 12.492188 9.132812 12.875 9.1875 C 12.898438 9.160156 12.882812 9.148438 12.871094 9.132812 C 12.617188 8.882812 12.367188 8.628906 12.101562 8.382812 C 12.046875 8.332031 11.992188 8.332031 11.921875 8.363281 C 11.632812 8.5 11.34375 8.628906 11.054688 8.761719 C 10.980469 8.796875 10.898438 8.824219 10.828125 8.882812 C 11.128906 8.929688 11.410156 8.972656 11.714844 9.023438 M 5.839844 8.511719 C 5.644531 8.695312 5.464844 8.886719 5.308594 9.097656 C 5.398438 9.117188 5.472656 9.113281 5.542969 9.101562 C 5.769531 9.066406 5.996094 9.054688 6.226562 9.046875 C 6.335938 9.042969 6.421875 9.015625 6.492188 8.960938 C 6.632812 8.84375 6.78125 8.730469 6.921875 8.617188 C 6.949219 8.59375 6.984375 8.574219 6.980469 8.542969 C 6.957031 8.515625 6.910156 8.511719 6.871094 8.503906 C 6.699219 8.464844 6.527344 8.425781 6.351562 8.386719 C 6.03125 8.320312 6.03125 8.320312 5.839844 8.511719 M 8.664062 8.933594 C 8.894531 9.113281 9.128906 9.292969 9.355469 9.46875 C 9.378906 9.460938 9.390625 9.460938 9.394531 9.457031 C 9.597656 9.289062 9.800781 9.121094 10.007812 8.953125 C 10.054688 8.910156 10.023438 8.886719 9.972656 8.863281 C 9.863281 8.808594 9.738281 8.761719 9.640625 8.699219 C 9.464844 8.589844 9.296875 8.566406 9.089844 8.664062 C 8.933594 8.738281 8.761719 8.792969 8.601562 8.855469 C 8.605469 8.890625 8.636719 8.90625 8.664062 8.933594 M 10.859375 8.554688 C 11.144531 8.421875 11.429688 8.289062 11.734375 8.144531 C 11.332031 7.972656 10.945312 7.808594 10.554688 7.640625 C 10.511719 7.699219 10.507812 7.738281 10.511719 7.78125 C 10.539062 8.046875 10.535156 8.316406 10.515625 8.582031 C 10.511719 8.617188 10.511719 8.652344 10.554688 8.683594 C 10.667969 8.660156 10.75 8.605469 10.859375 8.554688 M 9.054688 10.773438 C 9.035156 10.734375 9.007812 10.707031 8.933594 10.734375 C 8.675781 10.824219 8.433594 10.933594 8.195312 11.042969 C 8.132812 11.074219 8.125 11.101562 8.195312 11.136719 C 8.617188 11.328125 9.042969 11.527344 9.464844 11.722656 C 9.511719 11.742188 9.558594 11.765625 9.648438 11.777344 C 9.449219 11.4375 9.253906 11.109375 9.054688 10.773438 M 4.148438 7.097656 C 3.714844 7.03125 3.289062 6.953125 2.839844 6.917969 C 3.277344 7.226562 3.710938 7.535156 4.160156 7.851562 C 4.183594 7.820312 4.195312 7.808594 4.199219 7.792969 C 4.25 7.597656 4.300781 7.398438 4.351562 7.203125 C 4.363281 7.152344 4.339844 7.125 4.261719 7.117188 C 4.230469 7.113281 4.199219 7.105469 4.148438 7.097656 M 7.78125 9.289062 C 7.863281 9.167969 7.941406 9.042969 8.023438 8.925781 C 8.050781 8.886719 8.039062 8.867188 7.988281 8.847656 C 7.8125 8.785156 7.636719 8.71875 7.460938 8.652344 C 7.398438 8.628906 7.359375 8.648438 7.320312 8.679688 C 7.171875 8.800781 7.027344 8.917969 6.875 9.035156 C 6.808594 9.085938 6.808594 9.117188 6.894531 9.160156 C 7.121094 9.265625 7.332031 9.382812 7.535156 9.507812 C 7.554688 9.519531 7.574219 9.535156 7.621094 9.523438 C 7.667969 9.453125 7.722656 9.375 7.78125 9.289062 M 7.5625 10.601562 C 7.535156 10.394531 7.554688 10.183594 7.515625 9.957031 C 7.101562 10.097656 6.722656 10.238281 6.335938 10.40625 C 6.761719 10.550781 7.128906 10.722656 7.546875 10.847656 C 7.574219 10.761719 7.558594 10.691406 7.5625 10.601562 M 9.082031 7.484375 C 9.164062 7.515625 9.246094 7.546875 9.328125 7.578125 C 9.367188 7.59375 9.40625 7.601562 9.449219 7.589844 C 9.625 7.53125 9.804688 7.472656 9.980469 7.414062 C 10.035156 7.394531 10.050781 7.367188 10.011719 7.328125 C 9.835938 7.167969 9.65625 7.003906 9.480469 6.84375 C 9.441406 6.808594 9.40625 6.808594 9.363281 6.839844 C 9.160156 6.988281 8.957031 7.136719 8.753906 7.285156 C 8.699219 7.328125 8.71875 7.351562 8.789062 7.375 C 8.882812 7.40625 8.972656 7.445312 9.082031 7.484375 M 7.976562 7.175781 C 7.890625 7.050781 7.804688 6.925781 7.71875 6.796875 C 7.679688 6.742188 7.636719 6.738281 7.570312 6.785156 C 7.324219 6.949219 7.078125 7.117188 6.832031 7.28125 C 6.773438 7.320312 6.773438 7.347656 6.84375 7.375 C 6.96875 7.425781 7.09375 7.476562 7.214844 7.527344 C 7.28125 7.554688 7.335938 7.554688 7.402344 7.527344 C 7.5625 7.46875 7.730469 7.410156 7.894531 7.351562 C 8.058594 7.296875 8.058594 7.296875 7.976562 7.175781 M 10.882812 10.019531 C 10.914062 10.027344 10.945312 10.042969 10.996094 10.011719 C 10.78125 9.714844 10.5625 9.410156 10.332031 9.089844 C 10.082031 9.273438 9.882812 9.457031 9.652344 9.640625 C 10.070312 9.769531 10.46875 9.890625 10.882812 10.019531 M 5.238281 8.695312 C 5.347656 8.578125 5.457031 8.460938 5.566406 8.34375 C 5.605469 8.300781 5.617188 8.257812 5.515625 8.257812 C 5.226562 8.257812 4.9375 8.230469 4.652344 8.242188 C 4.519531 8.25 4.507812 8.265625 4.542969 8.347656 C 4.636719 8.558594 4.730469 8.769531 4.828125 8.980469 C 4.835938 9.003906 4.835938 9.035156 4.898438 9.042969 C 5.019531 8.9375 5.125 8.824219 5.238281 8.695312 M 9.878906 8.523438 C 9.964844 8.5625 10.035156 8.613281 10.148438 8.644531 C 10.148438 8.304688 10.148438 7.976562 10.148438 7.648438 C 10.128906 7.648438 10.125 7.648438 10.121094 7.648438 C 9.992188 7.691406 9.863281 7.726562 9.734375 7.769531 C 9.492188 7.855469 9.515625 7.800781 9.546875 7.996094 C 9.554688 8.027344 9.554688 8.0625 9.550781 8.097656 C 9.511719 8.277344 9.578125 8.421875 9.847656 8.507812 C 9.855469 8.507812 9.859375 8.511719 9.878906 8.523438 M 6.226562 8.066406 C 6.207031 8.101562 6.253906 8.109375 6.289062 8.117188 C 6.535156 8.171875 6.785156 8.222656 7.03125 8.277344 C 7.125 8.300781 7.160156 8.28125 7.160156 8.21875 C 7.15625 8.132812 7.148438 8.042969 7.160156 7.953125 C 7.175781 7.84375 7.128906 7.765625 6.964844 7.71875 C 6.863281 7.691406 6.777344 7.640625 6.683594 7.601562 C 6.644531 7.585938 6.609375 7.5625 6.546875 7.570312 C 6.441406 7.730469 6.335938 7.894531 6.226562 8.066406 M 10.558594 7.09375 C 10.738281 6.949219 10.917969 6.808594 11.113281 6.65625 C 10.640625 6.65625 10.203125 6.65625 9.761719 6.65625 C 9.765625 6.699219 9.800781 6.71875 9.824219 6.742188 C 9.949219 6.859375 10.070312 6.976562 10.199219 7.09375 C 10.367188 7.246094 10.328125 7.28125 10.558594 7.09375 M 13.855469 7.648438 C 13.648438 7.582031 13.4375 7.515625 13.226562 7.449219 C 13.171875 7.433594 13.117188 7.417969 13.070312 7.460938 C 12.90625 7.597656 12.742188 7.734375 12.578125 7.871094 C 12.558594 7.890625 12.523438 7.910156 12.550781 7.953125 C 13.050781 7.898438 13.558594 7.847656 14.058594 7.742188 C 14.007812 7.683594 13.929688 7.679688 13.855469 7.648438 M 13.941406 6.710938 C 13.867188 6.679688 13.839844 6.722656 13.808594 6.75 C 13.664062 6.878906 13.527344 7.011719 13.382812 7.144531 C 13.335938 7.1875 13.351562 7.210938 13.417969 7.234375 C 13.644531 7.304688 13.867188 7.378906 14.089844 7.449219 C 14.128906 7.460938 14.167969 7.476562 14.230469 7.457031 C 14.191406 7.203125 14.085938 6.957031 13.941406 6.710938 M 10.144531 10.320312 C 10.320312 10.289062 10.511719 10.292969 10.691406 10.25 C 10.675781 10.238281 10.675781 10.226562 10.664062 10.222656 C 10.316406 10.117188 9.96875 10.011719 9.617188 9.90625 C 9.550781 9.886719 9.535156 9.917969 9.519531 9.953125 C 9.472656 10.046875 9.425781 10.144531 9.382812 10.242188 C 9.363281 10.289062 9.320312 10.332031 9.332031 10.390625 C 9.601562 10.382812 9.863281 10.34375 10.144531 10.320312 M 8.976562 9.605469 C 9.058594 9.570312 8.980469 9.546875 8.957031 9.527344 C 8.78125 9.382812 8.597656 9.242188 8.417969 9.101562 C 8.398438 9.085938 8.382812 9.066406 8.328125 9.070312 C 8.195312 9.238281 8.09375 9.421875 7.976562 9.605469 C 8.316406 9.605469 8.636719 9.605469 8.976562 9.605469 M 8.851562 6.847656 C 8.917969 6.792969 9.007812 6.746094 9.066406 6.671875 C 8.71875 6.636719 8.382812 6.644531 8.019531 6.652344 C 8.148438 6.84375 8.253906 7.019531 8.402344 7.203125 C 8.558594 7.078125 8.699219 6.96875 8.851562 6.847656 M 13.707031 9.207031 C 13.652344 9.234375 13.59375 9.261719 13.539062 9.292969 C 13.507812 9.308594 13.472656 9.328125 13.496094 9.359375 C 13.574219 9.449219 13.667969 9.535156 13.796875 9.628906 C 13.914062 9.433594 14.015625 9.257812 14.070312 9.050781 C 13.914062 9.089844 13.824219 9.152344 13.707031 9.207031 Z M 13.707031 9.207031 "/>
</g>
</svg>
