<svg version="1.1" id="Layer_1" xmlns="http://www.w3.org/2000/svg" xmlns:xlink="http://www.w3.org/1999/xlink" x="0px" y="0px" width="100%" viewBox="0 0 672 1024" enable-background="new 0 0 672 1024" xml:space="preserve">

<path fill="#000000" opacity="1.000000" stroke="none" d="
M418.350281,779.501892 
	C392.140808,786.881470 365.780426,790.991821 339.009277,790.123779 
	C246.424316,787.121704 172.399292,748.134949 117.530708,673.520752 
	C91.516861,638.145325 74.864136,598.425659 69.269920,554.849670 
	C58.363178,469.891876 78.902161,393.934845 137.048431,329.591644 
	C177.406326,284.932617 227.104874,255.868042 285.957794,243.529694 
	C355.802704,228.886902 421.741272,240.445206 483.059082,276.826294 
	C533.196533,306.573883 570.819336,347.955811 594.935059,401.181946 
	C607.532227,428.985321 614.911438,458.225525 617.490173,488.707947 
	C621.711426,538.606262 613.960876,586.506714 592.087891,631.530823 
	C556.727356,704.318176 500.326477,753.427856 423.086914,778.251282 
	C421.663605,778.708679 420.195160,779.025452 418.350281,779.501892 
M297.750977,409.830048 
	C275.592316,397.484985 254.023651,384.064636 231.169037,372.246307 
	C230.084183,374.587189 229.304123,376.040405 228.718781,377.568207 
	C220.921417,397.920044 213.140350,418.278168 205.381393,438.644684 
	C203.189026,444.399445 203.385468,444.748016 209.482574,446.484589 
	C227.078323,451.496124 244.715042,456.369110 262.250793,461.582001 
	C266.160675,462.744293 268.735504,462.056183 271.509949,459.181061 
	C283.301208,446.961731 295.287506,434.930817 307.163971,422.793274 
	C308.521210,421.406281 310.214325,420.173553 310.551239,417.675934 
	C306.866302,414.708893 302.548462,412.573334 297.750977,409.830048 
M152.548859,501.931885 
	C135.527573,483.214386 118.520569,464.483795 101.460304,445.801880 
	C99.948112,444.145966 98.558052,441.535400 95.936302,442.158051 
	C93.273987,442.790314 93.571739,445.864807 92.705917,447.937958 
	C92.516243,448.392090 92.472443,448.906097 92.350822,449.389862 
	C85.359970,477.196411 82.446793,505.364838 85.508560,533.950195 
	C86.255844,540.927002 86.422638,548.126343 89.222672,555.678406 
	C115.522995,543.294983 141.300339,531.187805 167.353134,517.858765 
	C162.248627,512.374207 157.635574,507.417755 152.548859,501.931885 
M425.282562,330.071259 
	C421.410156,312.570068 417.500610,295.078064 414.549683,277.387054 
	C413.519684,271.212280 412.007965,270.473877 406.819122,273.737427 
	C387.391602,285.956451 368.027924,298.277100 348.648956,310.573242 
	C343.699524,313.713715 343.558838,314.128693 348.096863,317.979187 
	C362.936646,330.570679 377.920746,342.992126 392.756165,355.588654 
	C395.050415,357.536682 397.155945,357.501404 399.602966,356.364899 
	C406.238586,353.283051 412.938751,350.333038 419.503052,347.106384 
	C427.701996,343.076233 429.616425,343.178070 425.884064,333.338409 
	C425.596222,332.579559 425.625641,331.700378 425.282562,330.071259 
M316.338287,533.893677 
	C316.240204,536.119690 317.227448,537.636902 319.163879,538.757812 
	C328.099426,543.930054 337.014984,549.137573 345.893738,554.406555 
	C348.173798,555.759583 350.218719,555.635071 352.437347,554.315796 
	C362.170074,548.528442 371.920074,542.769531 381.700836,537.063782 
	C384.596161,535.374695 385.877319,533.052368 385.715607,529.668335 
	C385.286316,520.687073 384.966461,511.699646 384.713135,502.711548 
	C384.644867,500.289642 383.748901,498.621582 381.626160,497.456665 
	C371.700745,492.009766 361.802673,486.513062 351.889130,481.044434 
	C350.254883,480.142914 348.645416,479.455017 346.722870,480.508240 
	C337.378662,485.627106 327.993042,490.670349 318.640350,495.773895 
	C316.789276,496.783997 315.607513,498.132355 315.838959,500.565796 
	C316.866028,511.365784 315.959991,522.203064 316.338287,533.893677 
M551.957642,445.501282 
	C559.829285,434.542175 567.544983,423.465271 575.673340,412.700012 
	C577.935791,409.703491 578.113464,407.428101 576.645081,404.172028 
	C569.753296,388.889679 560.288940,375.188049 550.918640,361.408569 
	C548.613708,358.019073 547.079956,358.959717 544.904480,361.555237 
	C530.674866,378.532379 516.333435,395.415741 502.039093,412.338684 
	C497.996796,417.124390 498.016815,417.513184 503.071869,421.144714 
	C515.519409,430.086945 528.000488,438.982483 540.470398,447.893494 
	C546.916626,452.499969 546.918884,452.496826 551.957642,445.501282 
M506.451935,382.985809 
	C515.807312,371.921387 525.085693,360.790222 534.571594,349.838898 
	C536.978455,347.060211 537.444397,345.036072 534.608032,342.287720 
	C528.390015,336.262604 522.394714,330.007965 516.291931,323.863434 
	C514.397034,321.955566 512.435242,321.053070 509.629242,322.457520 
	C491.158508,331.702423 472.058014,339.560211 453.133148,347.798767 
	C449.216461,349.503784 448.631073,351.235413 451.034698,354.830719 
	C461.680084,370.753723 472.205231,386.758911 482.590210,402.852966 
	C485.136108,406.798431 487.107452,406.387482 489.737183,403.154846 
	C495.097046,396.566132 500.571686,390.070831 506.451935,382.985809 
M501.623444,508.561157 
	C504.863678,510.347107 506.170074,507.643463 507.615692,505.790253 
	C516.105042,494.907715 524.541443,483.983276 532.919861,473.015015 
	C537.984863,466.384399 537.770996,465.360138 530.969910,460.427612 
	C530.835327,460.330017 530.691040,460.245697 530.556763,460.147766 
	C516.997375,450.263214 502.611420,441.498779 490.028687,430.292084 
	C487.285950,427.849274 485.135590,428.432465 482.891449,431.098389 
	C472.398346,443.563660 461.909821,456.035309 451.216400,468.327850 
	C448.006409,472.017883 448.880432,474.110748 452.612000,476.522827 
	C468.811676,486.994141 484.907806,497.625641 501.623444,508.561157 
M352.238831,737.304626 
	C345.137024,732.361572 338.073090,727.362732 330.911987,722.507141 
	C328.549591,720.905334 326.188629,719.906250 323.113586,721.796936 
	C310.784149,729.377686 298.268494,736.654724 285.870392,744.124817 
	C278.401245,748.625061 271.021729,753.274170 262.290314,758.666321 
	C305.721497,773.481689 348.383698,773.758484 391.464020,766.541443 
	C391.667450,765.910767 391.870850,765.280090 392.074280,764.649475 
	C378.989410,755.675903 365.904572,746.702332 352.238831,737.304626 
M175.340622,599.279907 
	C172.222504,598.780151 169.095566,598.329590 165.987717,597.772583 
	C145.217880,594.050415 124.464851,590.232483 103.678665,586.604309 
	C95.466850,585.171021 93.971100,586.800232 96.830559,594.521606 
	C104.942451,616.425964 114.957626,637.407471 127.934464,656.911865 
	C130.427582,660.658997 133.021408,660.760254 136.089630,657.934631 
	C137.431061,656.699341 138.628510,655.299622 139.828827,653.920288 
	C151.842926,640.113892 163.847916,626.299500 175.846024,612.479248 
	C178.850006,609.018982 182.510681,606.056091 184.498291,601.472839 
	C181.739197,600.007629 178.916473,599.848511 175.340622,599.279907 
M569.390137,574.851379 
	C576.877075,569.296814 584.359924,563.736694 591.853210,558.190735 
	C594.595581,556.161011 596.871094,553.834045 597.503601,550.282532 
	C599.432678,539.451111 600.066101,528.492310 600.570862,517.535339 
	C600.849426,511.487366 599.514832,510.606201 593.466614,511.844360 
	C570.666382,516.512024 548.046692,522.099487 524.925110,525.131287 
	C520.090942,525.765198 519.729980,527.140442 522.672913,531.319946 
	C527.177246,537.716858 531.700256,544.102661 536.083191,550.582520 
	C543.237305,561.159119 550.766418,571.491760 556.748718,582.970947 
	C561.670105,581.203186 564.887268,577.671448 569.390137,574.851379 
M539.924561,680.444153 
	C550.868896,666.786682 561.074219,652.654663 568.947632,636.927063 
	C570.655884,633.514648 570.789368,630.755249 568.527161,627.732727 
	C564.342163,622.141235 560.164062,616.541077 556.142700,610.832031 
	C554.006226,607.798950 552.297913,607.769226 549.368225,610.161621 
	C531.203003,624.995300 512.866882,639.619812 494.584045,654.309448 
	C489.622101,658.296204 489.554901,658.621155 494.843994,662.409241 
	C504.581940,669.383484 514.349060,676.320557 524.218201,683.107117 
	C532.816284,689.019592 532.944946,688.910339 539.924561,680.444153 
M216.538879,607.006531 
	C218.710068,609.528076 220.962509,611.984680 223.038361,614.582458 
	C231.973801,625.764221 240.781677,637.048767 249.792694,648.168945 
	C254.124390,653.514526 256.629822,654.153870 261.174042,651.053894 
	C276.042145,640.911255 291.508636,631.773254 307.245056,623.069153 
	C307.774902,622.776062 308.168243,622.236206 309.088135,621.380981 
	C297.522705,612.146606 286.242523,603.120789 274.934387,594.130066 
	C273.070740,592.648376 270.835144,592.941711 268.685303,593.235962 
	C251.890945,595.534180 235.091492,597.798035 218.313736,600.212402 
	C213.028397,600.973022 212.825943,601.818420 216.538879,607.006531 
M386.661926,385.511566 
	C386.656586,383.682129 386.398895,381.811249 386.691071,380.030640 
	C387.765656,373.481476 384.857666,369.204895 379.800629,365.290466 
	C368.365173,356.438843 357.340210,347.058838 346.050903,338.015350 
	C342.742065,335.364777 339.834320,332.107697 336.017487,330.369843 
	C334.117645,331.435913 334.195770,333.036621 334.191711,334.490906 
	C334.125122,358.272308 334.121674,382.053986 334.024445,405.835236 
	C334.012177,408.830078 335.178009,409.878387 338.160767,409.929291 
	C352.450531,410.172852 366.762207,409.140045 381.030853,410.613190 
	C385.237152,411.047455 386.660919,408.834320 386.623047,404.967865 
	C386.562836,398.815216 386.642090,392.661163 386.661926,385.511566 
M241.361954,681.024353 
	C242.481384,674.480164 242.094849,673.832031 237.306564,674.768738 
	C212.155167,679.689392 187.006393,684.623962 161.877472,689.657349 
	C160.247742,689.983826 158.082214,689.852966 156.972687,692.770264 
	C175.968704,713.297241 199.087814,728.565979 224.316803,742.683105 
	C230.092148,721.753479 235.605240,701.774231 241.361954,681.024353 
M177.070068,634.547607 
	C166.848877,646.407593 156.952133,658.557434 145.680389,669.476685 
	C144.257156,670.855408 142.720154,672.435059 143.843735,674.713867 
	C145.089127,677.239807 147.183334,676.136292 149.098434,675.772217 
	C172.308578,671.360779 195.542175,667.068176 218.718414,662.485474 
	C224.808716,661.281128 231.183395,660.902283 237.958603,657.578491 
	C224.707321,641.590881 212.954132,625.214722 199.420349,609.753540 
	C190.943863,617.485596 184.723557,626.194031 177.070068,634.547607 
M242.548370,335.886353 
	C241.982544,339.900085 239.605667,343.585205 240.220596,349.010834 
	C265.860260,337.474487 289.920929,324.288849 314.171906,311.411407 
	C313.732025,310.335052 313.674957,309.743042 313.349518,309.464111 
	C298.186646,296.467926 283.715881,282.658356 267.834290,270.509766 
	C263.304260,267.044525 259.859711,268.413208 258.676605,274.352448 
	C254.578491,294.925385 247.830383,314.795898 242.548370,335.886353 
M225.672791,284.225586 
	C203.126282,295.911438 182.604401,310.404724 163.766937,327.992706 
	C168.171783,331.175964 172.717606,331.834656 176.902786,333.274658 
	C189.517838,337.615082 201.742004,342.889038 214.005508,348.099213 
	C221.034943,351.085632 222.661591,350.222076 224.827805,343.079773 
	C227.001022,335.914490 228.923477,328.673279 230.974548,321.470703 
	C234.574554,308.828766 237.013794,295.873627 241.282181,283.408356 
	C241.850540,281.748566 242.615204,279.654633 240.865646,278.294373 
	C239.306976,277.082458 237.679001,278.399200 236.217804,279.074127 
	C232.891617,280.610504 229.618393,282.261505 225.672791,284.225586 
M340.332886,255.445648 
	C322.043243,256.256592 303.754059,257.070557 285.633942,262.968292 
	C286.499756,264.300323 286.744995,264.950745 287.207336,265.349243 
	C300.432281,276.747925 313.713318,288.081787 326.896851,299.528015 
	C329.994812,302.217773 332.691223,301.735565 335.861176,299.676575 
	C353.987305,287.902954 372.186493,276.241852 390.349731,264.525208 
	C391.160767,264.002045 392.097687,263.502869 392.221558,261.592438 
	C375.562561,257.312927 358.384979,256.551941 340.332886,255.445648 
M204.445023,461.389618 
	C202.666382,461.271149 201.066605,459.811493 198.829742,460.795074 
	C195.854187,476.424805 192.855103,492.225342 189.831482,508.021240 
	C189.212219,511.256348 191.242294,511.641449 193.640076,511.707367 
	C209.107529,512.132568 224.576904,512.501160 240.041000,513.025879 
	C244.066376,513.162476 246.490295,511.730927 248.047592,507.870819 
	C251.346329,499.694153 255.052414,491.682312 258.561188,483.589752 
	C261.171021,477.570526 261.014618,477.228333 254.659897,475.440643 
	C238.173340,470.802582 221.678162,466.195190 204.445023,461.389618 
M474.671783,735.132202 
	C489.460236,726.327576 502.930969,715.742798 515.881897,704.475708 
	C520.496338,700.461121 520.430969,699.402649 515.443298,695.861328 
	C504.725922,688.251587 493.807861,680.919067 483.218048,673.138123 
	C479.575958,670.462097 478.012573,671.199097 476.186127,674.913696 
	C464.073578,699.547546 451.813385,724.108887 439.660217,748.722839 
	C439.061493,749.935547 437.766144,751.183105 439.085663,753.294250 
	C451.118134,748.137878 462.761139,742.185608 474.671783,735.132202 
M314.470734,330.188629 
	C293.017731,340.801270 271.564728,351.413940 249.547882,362.305511 
	C251.106918,363.675537 251.650894,364.327545 252.339828,364.733704 
	C272.967865,376.894318 293.608765,389.033112 314.251984,401.167938 
	C317.370209,403.001007 318.456512,401.510773 318.641785,398.474243 
	C319.969940,376.706604 319.211060,354.938751 318.659882,333.171143 
	C318.603302,330.937073 318.126099,329.048676 314.470734,330.188629 
M140.278442,394.717682 
	C162.531189,384.214905 184.783920,373.712097 208.073944,362.719727 
	C205.918884,361.451721 205.273788,360.928650 204.536057,360.659241 
	C189.553741,355.187958 174.607590,349.611938 159.552338,344.348297 
	C150.652374,341.236664 150.459656,341.515320 144.440445,348.871063 
	C130.794250,365.547333 119.535316,383.766571 109.606163,402.836945 
	C108.918167,404.158325 107.412941,405.558807 109.177444,407.846100 
	C119.870361,405.175781 129.388138,399.234406 140.278442,394.717682 
M425.086792,743.578735 
	C436.428131,719.708374 449.905029,696.862305 460.701935,672.102600 
	C458.772705,671.803345 458.117584,671.542969 457.513184,671.631042 
	C438.275391,674.433594 419.035065,677.220520 399.813171,680.129456 
	C393.621735,681.066528 393.503387,681.273071 395.608521,686.835815 
	C403.023560,706.430115 410.533081,725.988647 418.046417,745.545532 
	C418.666718,747.160156 418.944824,749.176025 421.652679,749.677856 
	C422.656250,747.915100 423.706848,746.069702 425.086792,743.578735 
M154.542068,405.160645 
	C142.068924,411.128632 129.595779,417.096619 116.905022,423.168732 
	C118.686256,425.502991 120.434547,425.424225 122.013206,425.790222 
	C141.917786,430.404907 161.857574,434.877289 181.694611,439.766541 
	C186.188339,440.874115 188.332535,440.000153 189.991425,435.690521 
	C196.382294,419.087555 203.064529,402.596893 209.577255,386.040436 
	C210.153809,384.574738 211.445770,382.848419 210.063095,381.370667 
	C208.402267,379.595673 206.629257,381.212341 205.079590,381.920593 
	C188.443954,389.523499 171.837570,397.190460 154.542068,405.160645 
M309.232391,708.469238 
	C296.592316,701.093262 283.958893,693.705811 271.307800,686.348816 
	C267.860779,684.344238 264.399078,682.357849 260.870117,680.503967 
	C258.730194,679.379822 256.983276,679.748962 256.355835,682.443726 
	C251.383728,703.796692 244.098877,724.543457 239.687012,746.043274 
	C239.346527,747.702576 238.992264,749.448486 240.602081,750.618652 
	C242.100296,751.707825 243.492645,750.626282 244.751953,749.916321 
	C251.850372,745.914734 258.936005,741.889282 265.984985,737.801331 
	C279.798737,729.790161 293.603577,721.756531 306.870300,712.858582 
	C308.063477,712.058228 311.425751,711.966553 309.232391,708.469238 
M146.704437,578.635071 
	C160.964691,581.237000 175.224945,583.838928 189.718842,586.483459 
	C189.718842,585.086609 189.875351,584.390564 189.695999,583.795776 
	C184.897766,567.884277 180.026611,551.994629 175.264496,536.072449 
	C174.038742,531.974060 171.722961,533.148438 169.150513,534.419678 
	C147.091156,545.320679 125.020187,556.198303 102.956123,567.089783 
	C101.960487,567.581299 100.645477,567.784668 100.661407,569.932129 
	C115.659195,572.796753 130.751099,575.679260 146.704437,578.635071 
M343.198761,688.635498 
	C352.213715,682.983459 361.186829,677.262756 370.272552,671.726807 
	C372.588623,670.315613 373.851654,668.487915 374.622162,665.982300 
	C377.600739,656.296387 380.693817,646.645569 383.737335,636.979492 
	C385.643921,630.924255 385.195648,630.229431 378.994629,630.355896 
	C365.197235,630.637268 351.402435,631.171936 337.604736,631.240173 
	C332.839935,631.263794 331.081299,632.839478 331.268738,637.641174 
	C331.819855,651.758972 331.980835,665.891602 332.474030,680.012207 
	C332.632629,684.553223 333.349182,689.074768 333.825165,693.749634 
	C337.721832,693.046631 339.833130,690.447510 343.198761,688.635498 
M401.463348,390.932068 
	C401.424957,395.092651 401.657532,399.278168 401.277313,403.407257 
	C400.835480,408.204865 402.596130,409.843872 407.420044,409.787384 
	C425.727081,409.572876 444.038025,409.699066 462.347290,409.641876 
	C463.894775,409.637054 465.752472,410.246521 466.800079,408.368073 
	C466.778046,407.999847 466.873901,407.601135 466.722351,407.354248 
	C456.885529,391.330963 446.427582,375.712830 435.888245,360.148041 
	C434.417908,357.976593 432.580627,358.429077 430.618530,359.349396 
	C422.184265,363.305450 413.755066,367.273193 405.285675,371.152924 
	C402.889740,372.250458 401.789673,373.754303 401.874451,376.540009 
	C402.010773,381.020294 401.695740,385.514313 401.463348,390.932068 
M480.157410,643.920837 
	C482.558289,644.934998 483.913086,643.030701 485.371033,641.860718 
	C500.177795,629.978271 514.935730,618.034973 529.676575,606.070679 
	C530.788513,605.168152 532.251465,604.411133 532.308350,602.005554 
	C506.302673,596.230591 480.212891,590.437012 454.123138,584.643433 
	C453.716705,585.194458 453.310303,585.745483 452.903870,586.296509 
	C461.819305,605.361816 470.734711,624.427124 480.157410,643.920837 
M477.093201,294.458069 
	C463.834381,286.432343 449.953064,279.658966 435.581757,273.880737 
	C433.927429,273.215607 432.072632,272.077423 430.429504,273.522522 
	C428.874878,274.889801 429.340240,276.859924 429.748352,278.680145 
	C433.632965,296.005554 437.545166,313.324951 441.358887,330.665985 
	C442.189850,334.444397 444.000183,335.147675 447.432190,333.596039 
	C459.699677,328.049591 472.048523,322.683319 484.326202,317.159180 
	C487.655334,315.661255 490.857666,313.876587 494.090302,312.170654 
	C497.766083,310.230927 498.138611,307.980499 494.498505,305.609436 
	C488.929474,301.981995 483.315033,298.424255 477.093201,294.458069 
M491.972687,577.400696 
	C508.299438,580.931702 524.626221,584.462769 540.759583,587.951965 
	C541.681885,586.272095 541.039734,585.380920 540.515015,584.582581 
	C529.908875,568.445801 519.499390,552.177856 508.229034,536.484314 
	C505.962494,533.328308 503.737122,533.232239 500.718262,535.363281 
	C488.615204,543.907043 476.415070,552.313232 464.303009,560.844421 
	C461.246185,562.997559 457.763641,564.676270 454.843201,568.419922 
	C467.374023,571.444275 479.267761,574.314880 491.972687,577.400696 
M245.336685,544.772949 
	C237.002411,556.539429 229.482361,568.779419 223.028183,582.275757 
	C226.656616,583.415222 229.862915,583.207886 232.817429,582.495789 
	C242.241058,580.224243 251.829651,579.481140 261.441376,578.959351 
	C266.079468,578.707520 269.720367,576.978210 272.643341,573.402771 
	C278.640930,566.066406 284.738861,558.812073 290.745697,551.483154 
	C291.876740,550.103149 293.268433,548.781799 293.199921,546.726868 
	C292.176880,544.896240 290.227478,544.732117 288.545685,544.159546 
	C281.311981,541.697205 274.071198,539.254578 266.814392,536.861328 
	C253.389023,532.433716 253.383591,532.450195 245.336685,544.772949 
M363.916260,571.738464 
	C373.634735,583.222107 383.353180,594.705811 392.919189,606.009338 
	C393.915649,605.602051 394.329559,605.565247 394.508026,605.340942 
	C403.097290,594.548645 411.650909,583.727966 420.248413,572.942200 
	C422.312836,570.352295 420.956757,568.720642 418.872620,567.192139 
	C414.181061,563.751343 409.059662,560.758301 404.895996,556.766541 
	C397.549835,549.723633 390.464203,548.336426 381.768616,554.531677 
	C375.223297,559.195129 367.936707,562.818115 361.241364,566.750793 
	C361.371552,569.063232 362.705597,569.982178 363.916260,571.738464 
M456.133209,547.591003 
	C468.073700,539.007751 480.014221,530.424500 492.861938,521.189087 
	C475.879211,510.185638 459.731201,499.723022 443.302826,489.078766 
	C441.424286,492.655945 441.314148,495.279053 441.494080,497.939819 
	C442.650848,515.047546 442.510223,532.157349 441.594910,549.268433 
	C441.470764,551.589111 441.440643,553.863464 443.295044,555.817505 
	C448.134583,554.130310 451.571198,550.632019 456.133209,547.591003 
M380.283936,689.404907 
	C379.399384,686.929565 378.351440,685.275696 375.220886,686.974792 
	C364.389160,692.853516 354.148285,699.632446 344.188873,706.859741 
	C341.581757,708.751587 341.172760,710.524475 344.169006,712.625122 
	C361.992523,725.121521 379.748444,737.714233 397.561707,750.225281 
	C399.533722,751.610291 401.526733,753.114868 405.306305,753.804443 
	C396.833679,731.981689 388.696747,711.023560 380.283936,689.404907 
M174.250748,454.362000 
	C156.081360,450.094757 138.087799,445.015686 119.225258,442.806946 
	C137.576065,462.551788 155.926865,482.296631 174.752686,502.552582 
	C175.633423,500.596741 176.237823,499.752655 176.394043,498.832520 
	C178.533356,486.231140 180.551346,473.608856 182.743515,461.016846 
	C183.321976,457.694183 182.198502,455.961395 178.940125,455.416412 
	C177.630692,455.197388 176.346802,454.825592 174.250748,454.362000 
M326.819885,594.422607 
	C330.197449,586.650269 333.476685,578.832764 337.011688,571.132751 
	C338.091980,568.779663 337.673859,567.465210 335.537659,566.270386 
	C328.140503,562.132751 320.760193,557.964172 313.409760,553.744202 
	C310.707520,552.192749 309.101929,553.602966 307.508575,555.549866 
	C301.296173,563.140564 295.161774,570.800049 288.763397,578.231567 
	C285.980225,581.464050 285.940491,583.528625 289.588684,586.179199 
	C299.008514,593.023071 307.907990,600.534668 316.424957,608.486755 
	C317.265564,609.271606 318.054749,610.214355 320.129791,609.596497 
	C322.132355,605.071533 324.332550,600.099976 326.819885,594.422607 
M317.620422,678.599976 
	C316.428375,665.276245 317.344025,651.811096 315.640015,637.154175 
	C298.325409,646.313660 282.375702,655.194763 266.072449,665.995850 
	C283.958649,675.129028 299.333405,686.150330 316.989868,694.185242 
	C318.112244,688.795471 317.392212,684.156250 317.620422,678.599976 
M381.415253,479.012512 
	C384.865906,481.014679 388.357086,482.951233 391.750000,485.046906 
	C393.429047,486.083984 394.997406,486.595184 396.871826,485.645813 
	C404.283325,481.891876 411.723755,478.194824 419.124786,474.420532 
	C421.489288,473.214691 422.112061,471.414215 420.473236,469.119965 
	C413.034058,458.705688 405.592468,448.293060 398.152130,437.879608 
	C396.608490,435.719086 395.012421,435.769867 393.290802,437.699707 
	C384.773438,447.247040 376.247925,456.787109 367.710815,466.316803 
	C365.388519,468.909088 366.120575,470.511749 369.069672,472.011749 
	C373.064606,474.043701 376.875244,476.438141 381.415253,479.012512 
M335.084747,459.228699 
	C331.466309,451.178497 327.849396,443.127625 324.228790,435.078400 
	C322.617981,431.497284 320.706299,431.216187 317.914001,434.126495 
	C307.647888,444.826355 297.300079,455.448883 286.889709,466.008545 
	C284.546875,468.384949 284.505005,470.150665 287.376740,471.938202 
	C292.608765,475.194916 297.864380,478.417969 303.013000,481.802795 
	C305.735870,483.592834 308.121796,483.387238 310.887054,481.813171 
	C317.690491,477.940521 324.606445,474.263275 331.514648,470.577728 
	C338.453094,466.876099 338.472992,466.913391 335.084747,459.228699 
M457.007629,641.191528 
	C458.349457,641.629944 459.635284,642.871155 461.795868,640.870422 
	C452.790619,621.701782 443.677094,602.302734 434.019379,581.745300 
	C423.367157,593.497437 415.038422,605.317261 405.460663,617.122192 
	C422.983276,625.300232 439.673553,633.089844 457.007629,641.191528 
M220.031067,556.615723 
	C224.590591,549.086060 229.145996,541.553894 233.711838,534.028076 
	C235.370239,531.294617 235.912933,528.516357 231.661148,528.534790 
	C219.533356,528.587280 207.456146,526.673462 195.328323,527.601135 
	C189.779175,528.025574 189.261566,528.897217 190.784698,534.163330 
	C194.702057,547.707336 198.679688,561.234192 202.729141,574.739136 
	C203.165421,576.194214 203.179993,578.164062 205.655136,578.762451 
	C210.806030,571.994568 215.250549,564.628540 220.031067,556.615723 
M414.954437,545.521912 
	C418.547455,547.938782 421.528107,551.344177 426.165833,553.158936 
	C426.165833,531.422607 426.165833,510.492126 426.165833,489.618225 
	C425.379883,489.556366 425.182220,489.477386 425.052551,489.539764 
	C419.661743,492.132019 414.204376,494.598022 408.907043,497.369720 
	C398.607300,502.758850 399.712677,499.330841 401.019165,511.724884 
	C401.244965,513.866699 401.365784,516.082397 401.084808,518.204346 
	C399.560822,529.714294 402.289520,539.110901 413.620239,544.448608 
	C413.912872,544.586487 414.142822,544.857544 414.954437,545.521912 
M261.433594,516.125244 
	C260.658966,518.575989 262.593628,518.923889 264.116913,519.433655 
	C274.534302,522.919983 284.994843,526.279541 295.382507,529.851379 
	C299.241364,531.178284 300.674622,529.880493 300.647186,526.057617 
	C300.606567,520.394043 300.242554,514.691162 300.768890,509.075531 
	C301.436188,501.956512 299.461151,497.043274 292.520630,494.014771 
	C288.307159,492.176208 284.685059,489.001556 280.741638,486.515472 
	C279.113342,485.488953 277.610748,483.940063 274.931152,484.586273 
	C270.564575,494.772064 266.117096,505.146545 261.433594,516.125244 
M443.448578,453.964600 
	C451.010895,444.854065 458.573242,435.743530 466.746674,425.896790 
	C446.973541,425.896790 428.535217,425.896790 410.058777,425.896790 
	C410.111877,428.817261 411.555237,430.106506 412.572388,431.567688 
	C417.791138,439.064392 422.984863,446.581299 428.357269,453.967560 
	C435.390472,463.637024 433.791962,465.911072 443.448578,453.964600 
M581.997986,489.539124 
	C573.166504,485.280334 564.338379,481.014587 555.501282,476.767517 
	C553.170837,475.647491 550.999573,474.781433 548.906738,477.506134 
	C542.124512,486.335846 535.169861,495.032867 528.359985,503.841614 
	C527.425659,505.050201 525.938354,506.255371 527.069092,508.959717 
	C548.196228,505.601288 569.434326,502.298248 590.465454,495.543610 
	C588.369568,491.675934 585.048950,491.463196 581.997986,489.539124 
M585.529785,429.416199 
	C582.474487,427.593018 581.264893,430.207672 580.000244,431.954834 
	C573.955383,440.306000 568.095093,448.790741 562.059753,457.148987 
	C560.066895,459.908936 560.699768,461.613739 563.581970,463.015747 
	C573.001770,467.597992 582.378845,472.268646 591.815979,476.814789 
	C593.384521,477.570374 595.081787,478.585999 597.656372,477.183624 
	C596.060120,460.998962 591.654175,445.306671 585.529785,429.416199 
M426.069183,660.525513 
	C433.513824,658.587646 441.439667,658.848450 449.032318,656.120728 
	C448.447662,655.128906 448.304932,654.503052 447.948975,654.338318 
	C433.291443,647.561218 418.622375,640.808777 403.933655,634.099487 
	C401.199524,632.850708 400.394562,634.859741 399.775177,636.882446 
	C397.874969,643.088013 395.952301,649.287781 394.159363,655.524536 
	C393.314941,658.461914 391.460754,661.201294 392.019653,665.094666 
	C403.341797,664.409302 414.210571,661.987122 426.069183,660.525513 
M377.035126,614.656616 
	C380.501099,612.449341 377.208008,610.972656 376.223297,609.764954 
	C368.756989,600.607788 361.116089,591.592834 353.508453,582.551270 
	C352.690369,581.579041 352.087646,580.215576 349.744995,580.454346 
	C344.133636,591.291809 339.968781,603.096924 334.945618,614.729309 
	C349.224792,614.729309 362.774933,614.729309 377.035126,614.656616 
M371.840057,438.364349 
	C374.528168,434.656525 378.271393,431.749603 380.738129,426.937897 
	C366.114044,424.723328 352.015198,425.175751 336.885773,425.830566 
	C342.231110,437.876617 346.610565,449.216797 352.923035,460.904572 
	C359.501129,453.072327 365.445984,445.994049 371.840057,438.364349 
M575.737183,589.284851 
	C573.341125,591.075623 570.903137,592.813721 568.565674,594.677917 
	C567.263611,595.716309 565.812622,596.987732 566.848267,598.877869 
	C570.083801,604.783142 574.053772,610.149170 579.444946,616.210815 
	C584.354065,603.804077 588.622375,592.588623 591.006409,579.367126 
	C584.428772,581.712952 580.693726,585.813782 575.737183,589.284851 
z" data-index="1" style="opacity: 1;"></path>
</svg>